# Blender v3.0.0 OBJ File: ''
# www.blender.org
mtllib ARSIS_Backplateobj.mtl
v 0.000000 -0.199999 -4.000000
v 0.000000 0.200001 -4.000000
v 0.780361 0.200001 -3.923141
v 0.780361 -0.199999 -3.923141
v 1.530734 0.200001 -3.695518
v 1.530734 -0.199999 -3.695518
v 2.222281 0.200001 -3.325878
v 2.222281 -0.199999 -3.325878
v 2.828427 0.200000 -2.828427
v 2.828427 -0.200000 -2.828427
v 3.325878 0.200000 -2.222281
v 3.325878 -0.200000 -2.222281
v 3.695518 0.200000 -1.530734
v 3.695518 -0.200000 -1.530734
v 3.923141 0.200000 -0.780361
v 3.923141 -0.200000 -0.780361
v 4.000000 0.200000 0.000000
v 4.000000 -0.200000 -0.000000
v 3.923141 0.200000 0.780361
v 3.923141 -0.200000 0.780361
v 3.695518 0.200000 1.530734
v 3.695518 -0.200000 1.530734
v 3.325879 0.200000 2.222281
v 3.325879 -0.200000 2.222281
v 2.828427 0.200000 2.828427
v 2.828427 -0.200000 2.828427
v 2.222281 0.199999 3.325879
v 2.222281 -0.200001 3.325879
v 1.530734 0.199999 3.695518
v 1.530734 -0.200001 3.695518
v 0.780361 0.199999 3.923141
v 0.780361 -0.200001 3.923141
v 0.000000 0.199999 4.000000
v 0.000000 -0.200001 4.000000
v -0.780361 0.199999 3.923141
v -0.780361 -0.200001 3.923141
v -1.530734 0.199999 3.695518
v -1.530734 -0.200001 3.695518
v -2.222281 0.199999 3.325878
v -2.222281 -0.200001 3.325878
v -2.828427 0.200000 2.828427
v -2.828427 -0.200000 2.828427
v -3.325878 0.200000 2.222282
v -3.325878 -0.200000 2.222282
v -3.695518 0.200000 1.530734
v -3.695518 -0.200000 1.530734
v -3.923141 0.200000 0.780362
v -3.923141 -0.200000 0.780362
v -4.000000 0.200000 0.000000
v -4.000000 -0.200000 -0.000000
v -3.923141 0.200000 -0.780362
v -3.923141 -0.200000 -0.780362
v -3.695518 0.200000 -1.530734
v -3.695518 -0.200000 -1.530734
v -3.325879 0.200000 -2.222280
v -3.325879 -0.200000 -2.222280
v -2.828428 0.200000 -2.828427
v -2.828428 -0.200000 -2.828427
v -2.222281 0.200001 -3.325878
v -2.222281 -0.199999 -3.325878
v -1.530734 0.200001 -3.695518
v -1.530734 -0.199999 -3.695518
v -0.780361 0.200001 -3.923141
v -0.780361 -0.199999 -3.923141
vt 0.571123 0.557928
vt 0.571123 0.585833
vt 0.568365 0.585833
vt 0.568365 0.557928
vt 0.565767 0.585833
vt 0.565767 0.557928
vt 0.563429 0.585833
vt 0.563429 0.557928
vt 0.561441 0.585833
vt 0.561441 0.613739
vt 0.559453 0.613739
vt 0.559453 0.585833
vt 0.557115 0.613739
vt 0.557115 0.585833
vt 0.554518 0.613739
vt 0.554518 0.585833
vt 0.551760 0.613739
vt 0.551760 0.585833
vt 0.548948 0.613739
vt 0.548948 0.585833
vt 0.546190 0.613739
vt 0.546190 0.585833
vt 0.543593 0.613739
vt 0.543593 0.585833
vt 0.541255 0.613739
vt 0.541255 0.585833
vt 0.581628 0.585833
vt 0.581628 0.613739
vt 0.579290 0.613739
vt 0.579290 0.585833
vt 0.576692 0.613739
vt 0.576692 0.585833
vt 0.573934 0.613739
vt 0.573934 0.585833
vt 0.571123 0.613739
vt 0.571123 0.585833
vt 0.568365 0.613739
vt 0.568365 0.585833
vt 0.565767 0.613739
vt 0.565767 0.585833
vt 0.563429 0.613739
vt 0.563429 0.585833
vt 0.561441 0.613739
vt 0.561441 0.585833
vt 0.563429 0.557928
vt 0.563429 0.585833
vt 0.561441 0.585833
vt 0.561441 0.557928
vt 0.559103 0.585833
vt 0.559103 0.557928
vt 0.556506 0.585833
vt 0.556506 0.557928
vt 0.553748 0.585833
vt 0.553748 0.557928
vt 0.550936 0.585833
vt 0.550936 0.557928
vt 0.548179 0.585833
vt 0.548179 0.557928
vt 0.545581 0.585833
vt 0.545581 0.557928
vt 0.543243 0.585833
vt 0.543243 0.557928
vt 0.541255 0.585833
vt 0.541255 0.557928
vt 0.581628 0.557928
vt 0.581628 0.585833
vt 0.579290 0.585833
vt 0.579290 0.557928
vt 0.576692 0.585833
vt 0.576692 0.557928
vt 0.559099 0.978358
vt 0.462940 0.978848
vt 0.368629 0.961089
vt 0.279789 0.925762
vt 0.199836 0.874227
vt 0.131841 0.808463
vt 0.078418 0.730997
vt 0.041619 0.644807
vt 0.022859 0.553205
vt 0.022859 0.459710
vt 0.041619 0.367917
vt 0.078418 0.281352
vt 0.131841 0.203342
vt 0.199836 0.136885
vt 0.279789 0.084535
vt 0.368629 0.048304
vt 0.462940 0.029583
vt 0.559099 0.029094
vt 0.653411 0.046853
vt 0.742251 0.082179
vt 0.822204 0.133715
vt 0.890199 0.199479
vt 0.943622 0.276945
vt 0.980421 0.363135
vt 0.999180 0.454737
vt 0.999180 0.548231
vt 0.980421 0.640025
vt 0.943622 0.726590
vt 0.890199 0.804600
vt 0.822204 0.871057
vt 0.742250 0.923407
vt 0.653411 0.959638
vt 0.573934 0.585833
vt 0.573934 0.557928
vt 0.463454 0.034926
vt 0.558585 0.035410
vt 0.651888 0.053930
vt 0.739778 0.089774
vt 0.818876 0.141564
vt 0.886144 0.207311
vt 0.938996 0.284486
vt 0.975401 0.370125
vt 0.993960 0.460937
vt 0.993960 0.553432
vt 0.975401 0.644054
vt 0.938996 0.729323
vt 0.886144 0.805960
vt 0.818876 0.871021
vt 0.739778 0.922005
vt 0.651888 0.956954
vt 0.558585 0.974523
vt 0.463455 0.974039
vt 0.370152 0.955519
vt 0.282262 0.919674
vt 0.203164 0.867885
vt 0.135896 0.802139
vt 0.083044 0.724963
vt 0.046639 0.639324
vt 0.028080 0.548512
vt 0.028080 0.456017
vt 0.046639 0.365394
vt 0.083044 0.280126
vt 0.135896 0.203489
vt 0.203164 0.138428
vt 0.282262 0.087444
vt 0.370151 0.052495
vn 0.0000 0.0000 -1.0000
vn 0.1951 0.0000 -0.9808
vn 0.3827 0.0000 -0.9239
vn 0.5556 0.0000 -0.8315
vn 0.7071 0.0000 -0.7071
vn 0.8315 0.0000 -0.5556
vn 0.9239 -0.0000 -0.3827
vn 0.9808 -0.0000 -0.1951
vn 1.0000 0.0000 0.0000
vn 0.9808 0.0000 0.1951
vn 0.9239 0.0000 0.3827
vn 0.8315 0.0000 0.5556
vn 0.7071 0.0000 0.7071
vn 0.5556 0.0000 0.8315
vn 0.3827 0.0000 0.9239
vn 0.1951 0.0000 0.9808
vn 0.0000 0.0000 1.0000
vn -0.1951 0.0000 0.9808
vn -0.3827 0.0000 0.9239
vn -0.5556 0.0000 0.8315
vn -0.7071 0.0000 0.7071
vn -0.8315 0.0000 0.5556
vn -0.9239 0.0000 0.3827
vn -0.9808 0.0000 0.1951
vn -1.0000 -0.0000 0.0000
vn -0.9808 -0.0000 -0.1951
vn -0.9239 0.0000 -0.3827
vn -0.8315 0.0000 -0.5556
vn -0.7071 0.0000 -0.7071
vn -0.5556 0.0000 -0.8315
vn -0.3827 0.0000 -0.9239
vn 0.0000 1.0000 0.0000
vn -0.1951 0.0000 -0.9808
vn -0.0000 -1.0000 -0.0000
usemtl Material.001
s 1
f 1/1/1 2/2/1 3/3/2 4/4/2
f 4/4/2 3/3/2 5/5/3 6/6/3
f 6/6/3 5/5/3 7/7/4 8/8/4
f 8/9/4 7/10/4 9/11/5 10/12/5
f 10/12/5 9/11/5 11/13/6 12/14/6
f 12/14/6 11/13/6 13/15/7 14/16/7
f 14/16/7 13/15/7 15/17/8 16/18/8
f 16/18/8 15/17/8 17/19/9 18/20/9
f 18/20/9 17/19/9 19/21/10 20/22/10
f 20/22/10 19/21/10 21/23/11 22/24/11
f 22/24/11 21/23/11 23/25/12 24/26/12
f 24/27/12 23/28/12 25/29/13 26/30/13
f 26/30/13 25/29/13 27/31/14 28/32/14
f 28/32/14 27/31/14 29/33/15 30/34/15
f 30/34/15 29/33/15 31/35/16 32/36/16
f 32/36/16 31/35/16 33/37/17 34/38/17
f 34/38/17 33/37/17 35/39/18 36/40/18
f 36/40/18 35/39/18 37/41/19 38/42/19
f 38/42/19 37/41/19 39/43/20 40/44/20
f 40/45/20 39/46/20 41/47/21 42/48/21
f 42/48/21 41/47/21 43/49/22 44/50/22
f 44/50/22 43/49/22 45/51/23 46/52/23
f 46/52/23 45/51/23 47/53/24 48/54/24
f 48/54/24 47/53/24 49/55/25 50/56/25
f 50/56/25 49/55/25 51/57/26 52/58/26
f 52/58/26 51/57/26 53/59/27 54/60/27
f 54/60/27 53/59/27 55/61/28 56/62/28
f 56/62/28 55/61/28 57/63/29 58/64/29
f 58/65/29 57/66/29 59/67/30 60/68/30
f 60/68/30 59/67/30 61/69/31 62/70/31
f 3/71/32 2/72/32 63/73/32 61/74/32 59/75/32 57/76/32 55/77/32 53/78/32 51/79/32 49/80/32 47/81/32 45/82/32 43/83/32 41/84/32 39/85/32 37/86/32 35/87/32 33/88/32 31/89/32 29/90/32 27/91/32 25/92/32 23/93/32 21/94/32 19/95/32 17/96/32 15/97/32 13/98/32 11/99/32 9/100/32 7/101/32 5/102/32
f 62/70/31 61/69/31 63/103/33 64/104/33
f 64/104/33 63/103/33 2/2/1 1/1/1
f 1/105/34 4/106/34 6/107/34 8/108/34 10/109/34 12/110/34 14/111/34 16/112/34 18/113/34 20/114/34 22/115/34 24/116/34 26/117/34 28/118/34 30/119/34 32/120/34 34/121/34 36/122/34 38/123/34 40/124/34 42/125/34 44/126/34 46/127/34 48/128/34 50/129/34 52/130/34 54/131/34 56/132/34 58/133/34 60/134/34 62/135/34 64/136/34
